<svg xmlns="http://www.w3.org/2000/svg" width="20" height="20" viewBox="0 0 20 20">
  <g id="Group_90252" data-name="Group 90252" transform="translate(-719.307 -103.307)">
    <circle id="Ellipse_13" data-name="Ellipse 13" cx="10" cy="10" r="10" transform="translate(719.307 103.307)" fill="#3f69ca"/>
    <g id="Layer_2" data-name="Layer 2" transform="translate(721.823 106.392)">
      <g id="Layer_1" data-name="Layer 1" transform="translate(0 0)">
        <path id="Path_64085" data-name="Path 64085" d="M74.443,108.349a1.01,1.01,0,0,0,.949,1.066h.055a1.008,1.008,0,1,0-1.007-1.066Z" transform="translate(-70.341 -101.486)" fill="#fff"/>
        <path id="Path_64086" data-name="Path 64086" d="M.353,119.991a.325.325,0,1,0,.225.108.325.325,0,0,0-.225-.108Z" transform="translate(-0.01 -113.383)" fill="#fff"/>
        <path id="Path_64087" data-name="Path 64087" d="M65.179,7.859a.327.327,0,1,0-.25.02A.326.326,0,0,0,65.179,7.859Z" transform="translate(-61.142 -6.844)" fill="#fff"/>
        <path id="Path_64088" data-name="Path 64088" d="M79.372,34.46a.5.5,0,1,0-.676-.223A.5.5,0,0,0,79.372,34.46Z" transform="translate(-74.312 -31.662)" fill="#fff"/>
        <path id="Path_64089" data-name="Path 64089" d="M26.2,60.019a.415.415,0,1,0-.119-.574A.415.415,0,0,0,26.2,60.019Z" transform="translate(-24.584 -55.995)" fill="#fff"/>
        <path id="Path_64090" data-name="Path 64090" d="M31.416,116.656a.5.5,0,1,0,.474.531A.5.5,0,0,0,31.416,116.656Z" transform="translate(-29.185 -110.231)" fill="#fff"/>
        <path id="Path_64091" data-name="Path 64091" d="M26.5,177.353a.415.415,0,1,0,.557.183A.415.415,0,0,0,26.5,177.353Z" transform="translate(-24.829 -167.545)" fill="#fff"/>
        <path id="Path_64092" data-name="Path 64092" d="M61.342,79.107a.592.592,0,1,0-.256-.375A.593.593,0,0,0,61.342,79.107Z" transform="translate(-57.711 -73.723)" fill="#fff"/>
        <path id="Path_64093" data-name="Path 64093" d="M174.734,34.2a.5.5,0,1,0-.218-.318A.5.5,0,0,0,174.734,34.2Z" transform="translate(-164.896 -31.443)" fill="#fff"/>
        <path id="Path_64094" data-name="Path 64094" d="M194.892,7.537a.326.326,0,1,0-.094-.451A.326.326,0,0,0,194.892,7.537Z" transform="translate(-184.021 -6.556)" fill="#fff"/>
        <path id="Path_64095" data-name="Path 64095" d="M161.81,107.191a1.008,1.008,0,0,0-.116,2.013h.058a1.008,1.008,0,0,0,.751-1.679,1,1,0,0,0-.694-.334Z" transform="translate(-151.893 -101.287)" fill="#fff"/>
        <path id="Path_64096" data-name="Path 64096" d="M96.078,71.46a1.008,1.008,0,1,0,.043-.981A1,1,0,0,0,96.078,71.46Z" transform="translate(-90.687 -66.145)" fill="#fff"/>
        <path id="Path_64097" data-name="Path 64097" d="M231.087,59.591a.415.415,0,1,0-.557-.184A.415.415,0,0,0,231.087,59.591Z" transform="translate(-217.794 -55.568)" fill="#fff"/>
        <path id="Path_64098" data-name="Path 64098" d="M189.4,77.8a.592.592,0,1,0,.452-.034A.593.593,0,0,0,189.4,77.8Z" transform="translate(-178.666 -73.456)" fill="#fff"/>
        <path id="Path_64099" data-name="Path 64099" d="M128.509.831a.415.415,0,1,0-.39-.437A.415.415,0,0,0,128.509.831Z" transform="translate(-121.063 -0.002)" fill="#fff"/>
        <path id="Path_64100" data-name="Path 64100" d="M125.542,42.121a.593.593,0,1,0-.558-.626A.592.592,0,0,0,125.542,42.121Z" transform="translate(-118.101 -38.682)" fill="#fff"/>
        <path id="Path_64101" data-name="Path 64101" d="M62.093,153.031a.593.593,0,1,0-.8-.262A.593.593,0,0,0,62.093,153.031Z" transform="translate(-57.862 -143.545)" fill="#fff"/>
        <path id="Path_64102" data-name="Path 64102" d="M139.261,70.325a1.008,1.008,0,1,0,.844-.455A1.008,1.008,0,0,0,139.261,70.325Z" transform="translate(-131.437 -66.023)" fill="#fff"/>
        <path id="Path_64103" data-name="Path 64103" d="M141.176,145.161a1.008,1.008,0,1,0-.9,1.461,1.019,1.019,0,0,0,.454-.11A1.008,1.008,0,0,0,141.176,145.161Z" transform="translate(-131.6 -136.644)" fill="#fff"/>
        <path id="Path_64104" data-name="Path 64104" d="M190.142,151.721a.593.593,0,1,0,.17.82A.592.592,0,0,0,190.142,151.721Z" transform="translate(-178.804 -143.274)" fill="#fff"/>
        <path id="Path_64105" data-name="Path 64105" d="M223.67,116.776a.5.5,0,1,0-.531.474A.5.5,0,0,0,223.67,116.776Z" transform="translate(-210.403 -109.844)" fill="#fff"/>
        <path id="Path_64106" data-name="Path 64106" d="M260.334,119.381a.326.326,0,1,0,.307.344.326.326,0,0,0-.307-.344Z" transform="translate(-245.673 -112.806)" fill="#fff"/>
        <path id="Path_64107" data-name="Path 64107" d="M231.4,176.926a.415.415,0,1,0,.119.574A.415.415,0,0,0,231.4,176.926Z" transform="translate(-218.047 -167.119)" fill="#fff"/>
        <path id="Path_64108" data-name="Path 64108" d="M65.746,232.442a.326.326,0,1,0,.094.452A.326.326,0,0,0,65.746,232.442Z" transform="translate(-61.649 -219.592)" fill="#fff"/>
        <path id="Path_64109" data-name="Path 64109" d="M195.413,232.138a.326.326,0,1,0,.249-.019.326.326,0,0,0-.249.019Z" transform="translate(-184.483 -219.322)" fill="#fff"/>
        <path id="Path_64110" data-name="Path 64110" d="M97.972,146.229a1.008,1.008,0,1,0-.844.455A1.008,1.008,0,0,0,97.972,146.229Z" transform="translate(-90.829 -136.703)" fill="#fff"/>
        <path id="Path_64111" data-name="Path 64111" d="M79.794,199.68a.5.5,0,1,0,.145.7A.5.5,0,0,0,79.794,199.68Z" transform="translate(-74.665 -188.606)" fill="#fff"/>
        <path id="Path_64112" data-name="Path 64112" d="M128.31,236.108a.415.415,0,1,0,.39.438A.415.415,0,0,0,128.31,236.108Z" transform="translate(-120.831 -223.106)" fill="#fff"/>
        <path id="Path_64113" data-name="Path 64113" d="M125.126,188.721a.593.593,0,1,0,.556.625A.593.593,0,0,0,125.126,188.721Z" transform="translate(-117.642 -178.328)" fill="#fff"/>
        <path id="Path_64114" data-name="Path 64114" d="M175.184,199.418a.5.5,0,1,0,.384-.03A.5.5,0,0,0,175.184,199.418Z" transform="translate(-165.277 -188.385)" fill="#fff"/>
      </g>
    </g>
  </g>
</svg>