<svg xmlns="http://www.w3.org/2000/svg" width="79.071" height="84.968" viewBox="0 0 79.071 84.968">
  <g id="Group_90288" data-name="Group 90288" transform="translate(-25 -17.032)">
    <g id="Group_90283" data-name="Group 90283" transform="translate(-878.22 -50.505)">
      <path id="Subtraction_82" data-name="Subtraction 82" d="M31.063,67.3a4.335,4.335,0,0,1-2.1-.538L2.1,51.941A4.145,4.145,0,0,1,.563,50.474,3.881,3.881,0,0,1,0,48.467V18.832a3.851,3.851,0,0,1,.562-2A4.117,4.117,0,0,1,2.1,15.355L28.965.538a4.368,4.368,0,0,1,4.2,0L60.031,15.355a4.108,4.108,0,0,1,1.537,1.473,3.88,3.88,0,0,1,.565,2V48.467a3.883,3.883,0,0,1-.565,2.008,4.14,4.14,0,0,1-1.537,1.467L33.164,66.759A4.342,4.342,0,0,1,31.063,67.3ZM14.716,29.567V49.188h24.5a10.116,10.116,0,0,0,7.295-2.864,9.681,9.681,0,0,0,3.013-7.2V27.457a9.682,9.682,0,0,0-3.013-7.144,10.134,10.134,0,0,0-7.295-2.923h-24.5V24.8H38.873a2.313,2.313,0,0,0-.257,1.067,2.369,2.369,0,0,0,3.437,2.116V39.121c0,1.761-.953,2.653-2.834,2.653H25.434a2.294,2.294,0,0,0,.135-.786,2.367,2.367,0,0,0-3.439-2.11V29.567ZM32.1,27.956a5.331,5.331,0,0,0-3.8,9.049,5.126,5.126,0,0,0,3.742,1.616h.072a5.332,5.332,0,0,0,.052-10.664Zm-.008,8.706a3.373,3.373,0,1,1,3.375-3.372A3.376,3.376,0,0,1,32.091,36.662Zm0-5.742a2.368,2.368,0,1,0,2.37,2.367A2.369,2.369,0,0,0,32.091,30.921Z" transform="translate(911.219 67.537)" fill="#fff"/>
    </g>
    <g id="Group_90287" data-name="Group 90287" transform="translate(-839 -46.823)">
      <path id="Path_89844" data-name="Path 89844" d="M142.152,0V.588h.882v2.19h.646V.588h.868V0Zm4.793,0-.75,1.338L145.445,0h-.529V2.778h.632V1.485l.426.764h.426l.426-.764V2.778h.646V0Z" transform="translate(795.597 136.466)" fill="#fff"/>
      <path id="Path_89845" data-name="Path 89845" d="M9.6,13.423a2.658,2.658,0,0,1-.831,1.985,2.776,2.776,0,0,1-2.011.789H0V10.789H2.044v3.365h4.71q.781,0,.781-.731V10.208q0-.731-.781-.731H0V7.433H6.754a2.783,2.783,0,0,1,2.011.806A2.656,2.656,0,0,1,9.6,10.208Z" transform="translate(864 132.625)" fill="#fff"/>
      <path id="Path_89846" data-name="Path 89846" d="M31.113,13.423a2.614,2.614,0,0,1-.848,1.985,2.8,2.8,0,0,1-2.01.789H23.113a2.807,2.807,0,0,1-2.019-.789,2.627,2.627,0,0,1-.839-1.985V10.208a2.634,2.634,0,0,1,.839-1.977,2.807,2.807,0,0,1,2.019-.8h5.142a2.8,2.8,0,0,1,2.01.8,2.622,2.622,0,0,1,.848,1.977Zm-2.044-3.215q0-.731-.814-.731H23.113q-.814,0-.815.731v3.215q0,.731.815.731h5.142q.814,0,.814-.731Z" transform="translate(854.188 132.625)" fill="#fff"/>
      <path id="Path_89847" data-name="Path 89847" d="M54.323,16.2H52.279V10.856l-3.638,5.192L45,10.856V16.2H42.959V7.433H45.1l3.54,5.059L52.2,7.433h2.127Z" transform="translate(843.189 132.625)" fill="#fff"/>
      <rect id="Rectangle_149550" data-name="Rectangle 149550" width="2.043" height="8.765" transform="translate(898.36 140.058)" fill="#fff"/>
      <path id="Path_89848" data-name="Path 89848" d="M81.59,16.2H79.555L74.3,10.291V16.2H72.253V7.433H74.3l5.259,5.857V7.433H81.59Z" transform="translate(828.998 132.625)" fill="#fff"/>
      <rect id="Rectangle_149551" data-name="Rectangle 149551" width="2.043" height="8.765" transform="translate(911.435 140.058)" fill="#fff"/>
      <path id="Path_89849" data-name="Path 89849" d="M108.364,13.489a2.761,2.761,0,0,1-.689,1.894,2.286,2.286,0,0,1-1.794.814H100.1a2.29,2.29,0,0,1-1.8-.806,2.773,2.773,0,0,1-.681-1.9V7.433h2.043v6.056q0,.664.441.665h5.782q.432,0,.432-.665V7.433h2.051Z" transform="translate(816.712 132.625)" fill="#fff"/>
      <path id="Path_89850" data-name="Path 89850" d="M131.473,16.2h-2.044V10.856l-3.638,5.192-3.639-5.192V16.2h-2.043V7.433h2.143l3.54,5.059,3.555-5.059h2.127Z" transform="translate(805.815 132.625)" fill="#fff"/>
      <g id="Group_90279" data-name="Group 90279" transform="translate(867.328 142.991)">
        <path id="Path_89851" data-name="Path 89851" d="M7.538,16.061a1.469,1.469,0,0,0,.034-2.939A1.47,1.47,0,0,0,6.09,14.574a1.42,1.42,0,0,0,.417,1.042,1.405,1.405,0,0,0,1.032.445m.013-2.4a.93.93,0,1,1-.93.93.931.931,0,0,1,.93-.93" transform="translate(-6.09 -13.122)" fill="#fff"/>
        <path id="Path_89852" data-name="Path 89852" d="M8.312,16.011a.652.652,0,1,0-.652-.653.653.653,0,0,0,.652.653" transform="translate(-6.85 -13.889)" fill="#fff"/>
      </g>
      <path id="Path_89858" data-name="Path 89858" d="M8.328,16.042a.668.668,0,1,0-.668-.668.669.669,0,0,0,.668.668" transform="translate(857.96 131.199)" fill="#fff"/>
      <path id="Path_89859" data-name="Path 89859" d="M8.328,16.042a.668.668,0,1,0-.668-.668.669.669,0,0,0,.668.668" transform="translate(862.979 126.934)" fill="#fff"/>
    </g>
  </g>
</svg>