<svg xmlns="http://www.w3.org/2000/svg" xmlns:xlink="http://www.w3.org/1999/xlink" width="300" height="200" viewBox="0 0 413 242">
  <defs>
    <clipPath id="clip-path">
      <rect id="Image_placeholder" data-name="Image placeholder" width="413" height="200" rx="8" transform="translate(273 137)" fill="#e69f3e"/>
    </clipPath>
  </defs>
  <g id="Group_90245" data-name="Group 90245" transform="translate(-223 -137)">
    <g id="Mask_Group_1" data-name="Mask Group 1" transform="translate(-50)" clip-path="url(#clip-path)">
      <g id="Group_90162" data-name="Group 90162" transform="translate(157.5 -64.081)">
        <circle id="Ellipse_1629" data-name="Ellipse 1629" cx="78" cy="78" r="78" transform="translate(302.5 165.081)" fill="#fff" opacity="0.097"/>
        <circle id="Ellipse_1630" data-name="Ellipse 1630" cx="78.5" cy="78.5" r="78.5" transform="translate(383.5 164.081)" fill="#fff" opacity="0.097"/>
        <ellipse id="Ellipse_1631" data-name="Ellipse 1631" cx="78.5" cy="78" rx="78.5" ry="78" transform="translate(330.5 224.081)" fill="#fff" opacity="0.097"/>
      </g>
    </g>
    <g id="Group_53" data-name="Group 53" transform="translate(435.643 216)">
      <path id="Path_5" data-name="Path 5" d="M996.985,730.465h128.522s1.494-19.473-8.417-27.972-18.308-3.118-24.693-12.9-31.312-36.369-44.262-37-19.371,21.116-28.948,24.624-5.81,22.857-18.317,28.326c-7.83,3.425-13.6,16.476-14.892,24.917Z" transform="translate(-960.316 -615.314)" fill="#e5e5e5"/>
      <path id="Path_6" data-name="Path 6" d="M980.141,920.6a33.247,33.247,0,0,0-6.109,8.408,41.624,41.624,0,0,0-2.955,8.358L968,937.42l2.078,3.6v0a40.488,40.488,0,0,1-3.5,9.306c-.558.964-1.126,1.85-1.685,2.661l-4.471-.309s1.069,1.994,1.961,3.574a25.918,25.918,0,0,1-3.162,3.183h-2.7s-2.3-8.408-1.5-14.613a27.456,27.456,0,0,1,.525-2.856l4.472-1.952-3.546-1.063a26.165,26.165,0,0,1,10.06-12.448c.1-.069.2-.135.294-.2l3.285.038s.131-1.032.339-2.287C976.616,920.6,980.141,920.6,980.141,920.6Z" transform="translate(-933.743 -844.074)" fill="#7e9b8b"/>
      <path id="Path_7" data-name="Path 7" d="M989.45,939.737a77.1,77.1,0,0,0-6.861,7.657c-1.054,1.35-2.062,2.737-3,4.17a41.246,41.246,0,0,0-2.55,4.439c-.2.379-.36.772-.542,1.157-.161.394-.339.78-.484,1.18l-.225.6-.207.606-.412,1.214q-.779,2.442-1.386,4.931t-.988,5.02c-.13.842-.242,1.687-.331,2.533s-.161,1.7-.187,2.527l-.9-.024c.047-.888.136-1.739.246-2.6s.24-1.713.39-2.564q.451-2.552,1.106-5.057t1.5-4.949l.441-1.215.222-.607.243-.6c.157-.4.347-.794.52-1.19.193-.387.37-.782.576-1.162a41.682,41.682,0,0,1,2.676-4.424c.972-1.422,2.016-2.791,3.1-4.122A77.182,77.182,0,0,1,989.45,939.737Z" transform="translate(-947.858 -860.405)" fill="#a1b7ab"/>
      <path id="Path_8" data-name="Path 8" d="M1019.637,1057.557a5.234,5.234,0,0,0-1.718-1.652,4.281,4.281,0,0,0-2.4-.45l1.952,1.4Z" transform="translate(-985.528 -959.153)" fill="#577062"/>
      <path id="Path_9" data-name="Path 9" d="M1012.373,989.9a3.755,3.755,0,0,0-1.231-1.184,3.068,3.068,0,0,0-1.722-.323l1.4,1Z" transform="translate(-980.324 -901.922)" fill="#577062"/>
      <path id="Path_10" data-name="Path 10" d="M962.143,1099.929a3.752,3.752,0,0,0-1.231-1.184,3.07,3.07,0,0,0-1.722-.323l1.4,1Z" transform="translate(-937.452 -995.832)" fill="#577062"/>
      <path id="Path_11" data-name="Path 11" d="M848.842,978.008a26.029,26.029,0,0,1,4.783,6.584,32.592,32.592,0,0,1,2.314,6.544l2.408.04L856.72,994v0a31.727,31.727,0,0,0,2.744,7.288c.437.755.882,1.448,1.319,2.083l3.5-.242s-.837,1.562-1.536,2.8a20.284,20.284,0,0,0,2.476,2.492h2.116s1.8-6.584,1.176-11.443a21.5,21.5,0,0,0-.411-2.236l-3.5-1.528,2.777-.833a20.489,20.489,0,0,0-7.878-9.747l-.23-.158-2.573.029s-.1-.808-.266-1.791C851.6,978.008,848.842,978.008,848.842,978.008Z" transform="translate(-843.267 -893.07)" fill="#a1b7ab"/>
      <path id="Path_12" data-name="Path 12" d="M874.533,992.992a60.419,60.419,0,0,1,5.534,5.866,39.643,39.643,0,0,1,4.551,6.685c.315.6.606,1.214.866,1.843s.477,1.266.716,1.9c.441,1.277.841,2.57,1.19,3.877s.639,2.631.879,3.964a35.428,35.428,0,0,1,.511,4.056l-.9.024a34.821,34.821,0,0,0-.393-3.951q-.3-1.976-.761-3.927t-1.073-3.859c-.217-.63-.413-1.276-.654-1.891s-.5-1.23-.8-1.828A39.324,39.324,0,0,0,879.886,999,60.294,60.294,0,0,0,874.533,992.992Z" transform="translate(-865.195 -905.859)" fill="#d3e5db"/>
      <path id="Path_13" data-name="Path 13" d="M914.536,1085.249a4.1,4.1,0,0,1,1.345-1.293,3.354,3.354,0,0,1,1.881-.353l-1.528,1.1Z" transform="translate(-899.339 -983.183)" fill="#7e9b8b"/>
      <path id="Path_14" data-name="Path 14" d="M925.549,1032.273a2.937,2.937,0,0,1,.964-.927,2.4,2.4,0,0,1,1.348-.253l-1.1.787Z" transform="translate(-908.739 -938.369)" fill="#7e9b8b"/>
      <path id="Path_15" data-name="Path 15" d="M961.377,1112.562a2.936,2.936,0,0,1,.964-.927,2.4,2.4,0,0,1,1.349-.253l-1.1.786Z" transform="translate(-939.318 -1006.897)" fill="#7e9b8b"/>
      <path id="Path_16" data-name="Path 16" d="M986.15,1045.342a17.576,17.576,0,0,0-3.23,4.446,22.01,22.01,0,0,0-1.562,4.419l-1.626.027,1.1,1.906v0a21.418,21.418,0,0,1-1.853,4.921c-.3.51-.6.978-.891,1.407l-2.364-.164s.565,1.054,1.037,1.89a13.705,13.705,0,0,1-1.672,1.683h-1.429a24.171,24.171,0,0,1-.794-7.726,14.537,14.537,0,0,1,.278-1.51l2.364-1.032-1.875-.562a13.836,13.836,0,0,1,5.319-6.582l.156-.106,1.737.02s.069-.546.179-1.209C984.285,1045.342,986.15,1045.342,986.15,1045.342Z" transform="translate(-949.046 -950.541)" fill="#d3e5db"/>
      <path id="Path_17" data-name="Path 17" d="M989.835,1055.459a40.716,40.716,0,0,0-3.585,4.083,26.5,26.5,0,0,0-2.877,4.567,17.833,17.833,0,0,0-.957,2.507q-.4,1.29-.705,2.6a28.871,28.871,0,0,0-.741,5.3l-.9-.024a29.519,29.519,0,0,1,.977-5.439c.242-.884.518-1.758.822-2.621a17.851,17.851,0,0,1,1.089-2.532,26.841,26.841,0,0,1,3.111-4.5A40.871,40.871,0,0,1,989.835,1055.459Z" transform="translate(-955.273 -959.176)" fill="#a1b7ab"/>
      <path id="Path_18" data-name="Path 18" d="M1007.033,1117.756a2.767,2.767,0,0,0-.908-.873,2.263,2.263,0,0,0-1.27-.238l1.032.741Z" transform="translate(-976.427 -1011.389)" fill="#b6ccc0"/>
      <path id="Path_19" data-name="Path 19" d="M1003.192,1081.984a1.986,1.986,0,0,0-.651-.626,1.621,1.621,0,0,0-.911-.171l.74.531Z" transform="translate(-973.675 -981.128)" fill="#b6ccc0"/>
      <path id="Path_20" data-name="Path 20" d="M976.634,1140.159a1.985,1.985,0,0,0-.651-.626,1.625,1.625,0,0,0-.911-.171l.74.531Z" transform="translate(-951.008 -1030.782)" fill="#b6ccc0"/>
      <path id="Path_21" data-name="Path 21" d="M925.549,1120.692a2.938,2.938,0,0,1,.964-.927,2.4,2.4,0,0,1,1.348-.253l-1.1.786Z" transform="translate(-908.739 -1013.836)" fill="#7e9b8b"/>
      <path id="Path_22" data-name="Path 22" d="M1951.954,888.83a36.922,36.922,0,0,0-6.785,9.34,46.214,46.214,0,0,0-3.282,9.283l-3.416.057,2.308,4v0a44.969,44.969,0,0,1-3.893,10.337c-.62,1.071-1.251,2.055-1.871,2.955l-4.967-.343s1.188,2.215,2.178,3.969a28.759,28.759,0,0,1-3.513,3.536h-3s-2.559-9.34-1.668-16.232a30.458,30.458,0,0,1,.584-3.172l4.967-2.168-3.939-1.181a29.062,29.062,0,0,1,11.175-13.827c.11-.077.22-.15.327-.224l3.649.042s.146-1.147.377-2.54C1948.038,888.83,1951.954,888.83,1951.954,888.83Z" transform="translate(-1760.815 -816.955)" fill="#7e9b8b"/>
      <path id="Path_23" data-name="Path 23" d="M1962.294,910.085a85.523,85.523,0,0,0-7.621,8.505c-1.171,1.5-2.29,3.04-3.327,4.632a45.893,45.893,0,0,0-2.833,4.931c-.217.421-.4.857-.6,1.285-.179.437-.377.867-.538,1.31l-.25.662-.23.674-.458,1.348q-.865,2.713-1.539,5.478t-1.1,5.576c-.144.936-.269,1.874-.368,2.813s-.179,1.889-.208,2.808l-1-.027c.052-.986.152-1.932.274-2.889s.267-1.9.433-2.848q.5-2.834,1.228-5.618t1.669-5.5l.49-1.35.246-.674.27-.67c.174-.449.385-.882.577-1.322.214-.43.411-.869.64-1.29a46.325,46.325,0,0,1,2.972-4.914c1.08-1.579,2.239-3.1,3.447-4.578A85.693,85.693,0,0,1,1962.294,910.085Z" transform="translate(-1776.493 -835.096)" fill="#a1b7ab"/>
      <path id="Path_24" data-name="Path 24" d="M1995.826,1040.957a5.817,5.817,0,0,0-1.908-1.835,4.757,4.757,0,0,0-2.669-.5l2.169,1.557Z" transform="translate(-1818.337 -944.784)" fill="#577062"/>
      <path id="Path_25" data-name="Path 25" d="M1987.756,965.807a4.168,4.168,0,0,0-1.367-1.315,3.41,3.41,0,0,0-1.913-.359l1.554,1.116Z" transform="translate(-1812.556 -881.212)" fill="#577062"/>
      <path id="Path_26" data-name="Path 26" d="M1931.963,1088.023a4.164,4.164,0,0,0-1.368-1.315,3.41,3.41,0,0,0-1.913-.359l1.554,1.116Z" transform="translate(-1764.935 -985.526)" fill="#577062"/>
      <path id="Path_27" data-name="Path 27" d="M1806.108,952.6a28.9,28.9,0,0,1,5.313,7.314,36.21,36.21,0,0,1,2.57,7.269l2.675.045-1.808,3.134v0a35.234,35.234,0,0,0,3.048,8.095c.486.839.979,1.609,1.466,2.314l3.889-.269s-.93,1.734-1.706,3.108a22.579,22.579,0,0,0,2.751,2.769h2.351s2-7.314,1.306-12.71a23.864,23.864,0,0,0-.457-2.484l-3.89-1.7,3.085-.925a22.757,22.757,0,0,0-8.75-10.827c-.086-.06-.172-.118-.256-.175l-2.858.033s-.114-.9-.295-1.989C1809.174,952.6,1806.108,952.6,1806.108,952.6Z" transform="translate(-1660.315 -871.38)" fill="#a1b7ab"/>
      <path id="Path_28" data-name="Path 28" d="M1834.646,969.239a67.142,67.142,0,0,1,6.147,6.516,44.057,44.057,0,0,1,5.055,7.425c.35.667.674,1.349.962,2.048s.53,1.406.8,2.111q.735,2.128,1.321,4.306t.976,4.4a39.366,39.366,0,0,1,.567,4.5l-1,.027a38.672,38.672,0,0,0-.437-4.389q-.334-2.194-.845-4.362T1847,987.543c-.241-.7-.459-1.417-.726-2.1s-.558-1.366-.883-2.03a43.652,43.652,0,0,0-4.8-7.5A67,67,0,0,0,1834.646,969.239Z" transform="translate(-1684.673 -885.586)" fill="#d3e5db"/>
      <path id="Path_29" data-name="Path 29" d="M1879.081,1071.718a4.551,4.551,0,0,1,1.494-1.437,3.726,3.726,0,0,1,2.09-.392l-1.7,1.219Z" transform="translate(-1722.599 -971.476)" fill="#7e9b8b"/>
      <path id="Path_30" data-name="Path 30" d="M1891.313,1012.872a3.26,3.26,0,0,1,1.071-1.03,2.668,2.668,0,0,1,1.5-.281l-1.217.874Z" transform="translate(-1733.04 -921.697)" fill="#7e9b8b"/>
      <path id="Path_31" data-name="Path 31" d="M1931.111,1102.056a3.267,3.267,0,0,1,1.071-1.03,2.67,2.67,0,0,1,1.5-.281l-1.217.874Z" transform="translate(-1767.008 -997.818)" fill="#7e9b8b"/>
      <path id="Path_32" data-name="Path 32" d="M1958.627,1027.389a19.523,19.523,0,0,0-3.587,4.939,24.449,24.449,0,0,0-1.736,4.909l-1.806.03,1.22,2.116v0a23.785,23.785,0,0,1-2.058,5.466c-.328.566-.661,1.086-.989,1.563l-2.627-.182s.628,1.171,1.152,2.1a15.221,15.221,0,0,1-1.857,1.87h-1.587s-1.353-4.938-.882-8.583a16.128,16.128,0,0,1,.309-1.677l2.626-1.146-2.083-.624a15.366,15.366,0,0,1,5.909-7.311l.173-.118,1.929.022s.077-.606.2-1.343C1956.557,1027.389,1958.627,1027.389,1958.627,1027.389Z" transform="translate(-1777.813 -935.218)" fill="#d3e5db"/>
      <path id="Path_33" data-name="Path 33" d="M1962.722,1038.628a45.282,45.282,0,0,0-3.982,4.535,29.386,29.386,0,0,0-3.2,5.073,19.774,19.774,0,0,0-1.063,2.784q-.442,1.433-.783,2.892a32.089,32.089,0,0,0-.823,5.883l-1-.027a32.767,32.767,0,0,1,1.084-6.042q.4-1.473.913-2.911a19.862,19.862,0,0,1,1.211-2.812,29.76,29.76,0,0,1,3.455-5A45.318,45.318,0,0,1,1962.722,1038.628Z" transform="translate(-1784.73 -944.811)" fill="#a1b7ab"/>
      <path id="Path_34" data-name="Path 34" d="M1981.825,1107.825a3.074,3.074,0,0,0-1.009-.97,2.516,2.516,0,0,0-1.411-.264l1.146.823Z" transform="translate(-1808.228 -1002.807)" fill="#b6ccc0"/>
      <path id="Path_35" data-name="Path 35" d="M1977.557,1068.091a2.2,2.2,0,0,0-.723-.7,1.8,1.8,0,0,0-1.012-.189l.822.59Z" transform="translate(-1805.17 -969.194)" fill="#b6ccc0"/>
      <path id="Path_36" data-name="Path 36" d="M1948.057,1132.711a2.2,2.2,0,0,0-.723-.7,1.8,1.8,0,0,0-1.011-.189l.822.59Z" transform="translate(-1779.991 -1024.35)" fill="#b6ccc0"/>
      <path id="Path_37" data-name="Path 37" d="M1891.313,1111.088a3.263,3.263,0,0,1,1.071-1.03,2.669,2.669,0,0,1,1.5-.281l-1.217.874Z" transform="translate(-1733.04 -1005.526)" fill="#7e9b8b"/>
      <ellipse id="Ellipse_1" data-name="Ellipse 1" cx="60.975" cy="5.723" rx="60.975" ry="5.723" transform="translate(31.932 116.969)" fill="#efefef" opacity="0.231"/>
      <path id="Path_38" data-name="Path 38" d="M1250.563,441.182v9.281H1233.9l-2.332,1.549-5.867,3.9-55.719,37V450.463h6.945a1.7,1.7,0,0,0,1.673-2.008l-1.338-7.273Z" transform="translate(-1117.363 -434.877)" fill="#9dc6c5"/>
      <path id="Path_39" data-name="Path 39" d="M1178.622,448.767a1.7,1.7,0,0,1-1.7,1.7h-6.945l7.28-9.281,1.338,7.273A1.716,1.716,0,0,1,1178.622,448.767Z" transform="translate(-1117.363 -434.877)" fill="#e4f2f2"/>
      <path id="Path_40" data-name="Path 40" d="M1302.7,419.653v12.435h-1.762v-9.281H1229v-3.154Z" transform="translate(-1167.739 -416.502)" fill="#80aaa8"/>
      <path id="Path_41" data-name="Path 41" d="M1242.317,504.541V604.689h-88.667V548.576l2.392-1.587,17-11.293,1.071-.71,5.357-3.559.964-.64,5.411-3.593.964-.64,5.409-3.593.964-.64,18.573-12.334,5.867-3.9,2.332-1.549Z" transform="translate(-1103.427 -488.955)" fill="#eff9f9"/>
      <path id="Path_42" data-name="Path 42" d="M1319.068,398.139v15.586h-2.145V401.291h-71.261v-3.151Z" transform="translate(-1181.962 -398.139)" fill="#426b75"/>
      <path id="Path_43" data-name="Path 43" d="M1242.317,861.279l-88.667-56.113v56.113Z" transform="translate(-1103.427 -745.545)" fill="#e4f2f2"/>
      <g id="Group_3" data-name="Group 3" transform="translate(63.7 33.365)">
        <path id="Path_44" data-name="Path 44" d="M1271.721,625.918l-.964.64h-25.1v-.64Z" transform="translate(-1245.662 -625.918)" fill="#80aaa8"/>
        <path id="Path_45" data-name="Path 45" d="M1245.662,654.817h19.687l-.964.64h-18.722Z" transform="translate(-1245.662 -650.584)" fill="#80aaa8"/>
      </g>
      <g id="Group_4" data-name="Group 4" transform="translate(63.7 41.831)">
        <path id="Path_46" data-name="Path 46" d="M1258.973,683.716l-.964.64h-12.347v-.64Z" transform="translate(-1245.662 -683.716)" fill="#80aaa8"/>
      </g>
      <g id="Group_5" data-name="Group 5" transform="translate(63.7 46.03)">
        <path id="Path_47" data-name="Path 47" d="M1252.651,712.381l-1.071.711h-5.919v-.711Z" transform="translate(-1245.662 -712.381)" fill="#80aaa8"/>
      </g>
      <g id="Group_6" data-name="Group 6" transform="translate(63.7 23.083)">
        <rect id="Rectangle_6" data-name="Rectangle 6" width="16.819" height="0.64" transform="translate(0 0)" fill="#80aaa8"/>
      </g>
      <g id="Group_7" data-name="Group 7" transform="translate(63.7 27.317)">
        <rect id="Rectangle_7" data-name="Rectangle 7" width="16.819" height="0.64" transform="translate(0 0)" fill="#80aaa8"/>
      </g>
      <path id="Path_48" data-name="Path 48" d="M1254.469,488.749h-22.852l-61.64,41.367v3.394l63.918-42.448h20.574Z" transform="translate(-1117.364 -475.476)" fill="#335a60" opacity="0.15"/>
      <path id="Path_49" data-name="Path 49" d="M1685.148,588.816l-2.293.928-24.931,10.085a27.307,27.307,0,0,1-7.248-5.844,46.4,46.4,0,0,1-3.478-6.1c-3.529-7.4-5.172-17.463-5.767-21.98l24.475-7.295a34.113,34.113,0,0,0,5.161,14.867,44.534,44.534,0,0,0,3.779,5.187A82.167,82.167,0,0,0,1685.148,588.816Z" transform="translate(-1519.76 -535.104)" fill="#e4f2f2"/>
      <path id="Path_50" data-name="Path 50" d="M1197.617,821.387s-1.646,15.428-7.31,25.861-12.428,14.365-12.428,14.365l-1.464-.454a50.232,50.232,0,0,0,10.12-14.589c4.069-8.532,6.128-19.906,7-26.036Z" transform="translate(-1122.858 -758.662)" fill="#cce2e1"/>
      <path id="Path_51" data-name="Path 51" d="M895.938,483.451l20.738,9.393s-3.323,11.346-8.567,18.439-10.263,9.175-10.263,9.175l-20.163-11.831s7.987-5.8,12.646-12.451A33.707,33.707,0,0,0,895.938,483.451Z" transform="translate(-867.884 -470.955)" fill="#e4f2f2"/>
      <path id="Path_52" data-name="Path 52" d="M1604.429,846.131s-.772-.246-.885-.583.277-.655.277-.655l.608.43Z" transform="translate(-1487.406 -779.453)" fill="#cc274e"/>
      <path id="Path_53" data-name="Path 53" d="M1597.811,861.593a5.512,5.512,0,0,1-2.1,2.439,3.457,3.457,0,0,0-2.062-3.4c.814-.837,1.868-1.611,2.521-2.441,1.352-1.721-.369-7,.819-7.166S1600.186,857.006,1597.811,861.593Z" transform="translate(-1478.979 -784.688)" fill="#efad2b"/>
      <path id="Path_54" data-name="Path 54" d="M1607.737,840.554a2.586,2.586,0,0,0,.191-1.91c-.368-.819-2.559-.041-2.416.614s.67,1.548,1.175,1.634A1.606,1.606,0,0,0,1607.737,840.554Z" transform="translate(-1489.096 -773.819)" fill="#f73c60"/>
      <path id="Path_55" data-name="Path 55" d="M1532.323,1227.91a2.444,2.444,0,0,1,.415,1.979c-.284,1.1-6.645-.325-6.3-1.146S1532.323,1227.91,1532.323,1227.91Z" transform="translate(-1421.595 -1106.367)" fill="#132951"/>
      <path id="Path_56" data-name="Path 56" d="M1563.5,1217.83a2.343,2.343,0,0,1,.4,1.9c-.272,1.056-6.373-.312-6.046-1.1S1563.5,1217.83,1563.5,1217.83Z" transform="translate(-1448.414 -1097.763)" fill="#132951"/>
      <path id="Path_57" data-name="Path 57" d="M1545.584,1032.656a4.835,4.835,0,0,1-.651,3.78c-3.131,5.5.156,23.308-2.039,23.309-4.077,0-4.352-23.069-2.722-28.224S1545.584,1032.656,1545.584,1032.656Z" transform="translate(-1432.538 -937.011)" fill="#6969f9"/>
      <path id="Path_58" data-name="Path 58" d="M1577.393,1028.814a5.206,5.206,0,0,1-.549,3.625c-2.637,5.275.132,22.357-1.717,22.358-3.435,0-3.667-22.128-2.293-27.073S1577.393,1028.814,1577.393,1028.814Z" transform="translate(-1460.54 -933.842)" fill="#6969f9"/>
      <path id="Path_59" data-name="Path 59" d="M1547.07,846.08s.825-.262.945-.624-.3-.7-.3-.7l-.65.459Z" transform="translate(-1439.22 -779.337)" fill="#cc274e"/>
      <g id="Group_8" data-name="Group 8" transform="translate(27.81 22.743)">
        <rect id="Rectangle_8" data-name="Rectangle 8" width="0.213" height="14.88" transform="translate(0 0.19) rotate(-62.723)" fill="#9dc6c5"/>
      </g>
      <g id="Group_9" data-name="Group 9" transform="translate(26.069 25.399)">
        <rect id="Rectangle_9" data-name="Rectangle 9" width="0.213" height="14.898" transform="translate(0 0.189) rotate(-62.484)" fill="#9dc6c5"/>
      </g>
      <g id="Group_10" data-name="Group 10" transform="translate(21.659 31.304)">
        <rect id="Rectangle_10" data-name="Rectangle 10" width="0.213" height="14.897" transform="matrix(0.462, -0.887, 0.887, 0.462, 0, 0.189)" fill="#9dc6c5"/>
      </g>
      <g id="Group_11" data-name="Group 11" transform="translate(24.09 27.801)">
        <rect id="Rectangle_11" data-name="Rectangle 11" width="0.213" height="14.898" transform="translate(0 0.189) rotate(-62.484)" fill="#9dc6c5"/>
      </g>
      <g id="Group_12" data-name="Group 12" transform="translate(19.889 34.358)">
        <rect id="Rectangle_12" data-name="Rectangle 12" width="0.213" height="14.897" transform="translate(0 0.189) rotate(-62.497)" fill="#9dc6c5"/>
      </g>
      <g id="Group_13" data-name="Group 13" transform="translate(29.591 19.678)">
        <rect id="Rectangle_13" data-name="Rectangle 13" width="0.213" height="6.833" transform="matrix(0.458, -0.889, 0.889, 0.458, 0, 0.19)" fill="#9dc6c5"/>
      </g>
      <g id="Group_14" data-name="Group 14" transform="translate(30.315 18.105)">
        <rect id="Rectangle_14" data-name="Rectangle 14" width="0.213" height="6.833" transform="matrix(0.458, -0.889, 0.889, 0.458, 0, 0.19)" fill="#9dc6c5"/>
      </g>
      <path id="Path_60" data-name="Path 60" d="M909.747,642.564l3.647,2.14a15.821,15.821,0,0,0,1.29-1.052,2.574,2.574,0,0,0,.61-.734l-3.59-2.074A6.913,6.913,0,0,1,909.747,642.564Z" transform="translate(-895.251 -605.293)" fill="#6969f9"/>
      <path id="Path_61" data-name="Path 61" d="M1574.271,889.771a2.084,2.084,0,0,0-.525.968,3.936,3.936,0,0,0,0,1.645s1.952.467,2.4-.548a1.356,1.356,0,0,0-.081-1.54l-.693-.7-.578-.105Z" transform="translate(-1461.91 -817.519)" fill="#f73c60"/>
      <path id="Path_62" data-name="Path 62" d="M1581.226,907.374v.955h1.42l-.237-1.324-.791-.076Z" transform="translate(-1468.373 -832.403)" fill="#f73c60"/>
      <path id="Path_63" data-name="Path 63" d="M1547.451,925.247c.831,1.488,1.138,7.485,1.138,7.485s-.481,1.136-4.8,1.115c-4.661-.023-6.229-2.078-6.229-2.078-.35-4.289,2.057-4.815,1.619-6.916a26.8,26.8,0,0,1,0-8.637c.364-1.712,3.33-2.476,4.885-2.759a4.992,4.992,0,0,1,2.435.138,4.422,4.422,0,0,1,.434.164,3.457,3.457,0,0,1,2.063,3.4C1549.073,920.294,1546.941,924.333,1547.451,925.247Z" transform="translate(-1431.072 -837.898)" fill="#ffbe2c"/>
      <path id="Path_64" data-name="Path 64" d="M1533.3,840.12a2.764,2.764,0,0,1-.2-2.041c.394-.875,2.735-.044,2.582.656s-.716,1.655-1.255,1.747A1.719,1.719,0,0,1,1533.3,840.12Z" transform="translate(-1427.178 -773.316)" fill="#f73c60"/>
      <path id="Path_65" data-name="Path 65" d="M980.442,743.487s-.158,1.677-.54,4.355c-.877,6.13-2.936,17.5-7,26.036a50.237,50.237,0,0,1-10.12,14.589,21.535,21.535,0,0,1-2.709,2.292l-33.954-11.976s10.374-11.109,15.469-22.533a51.905,51.905,0,0,0,4.749-20.884Z" transform="translate(-909.221 -685.97)" fill="#fff"/>
      <g id="Group_15" data-name="Group 15" transform="translate(39.818 64.988)">
        <rect id="Rectangle_15" data-name="Rectangle 15" width="0.213" height="22.917" transform="translate(0 0.205) rotate(-73.698)" fill="#80aaa8"/>
      </g>
      <g id="Group_16" data-name="Group 16" transform="translate(37.965 69.513)">
        <rect id="Rectangle_16" data-name="Rectangle 16" width="0.213" height="22.945" transform="translate(0 0.205) rotate(-73.459)" fill="#80aaa8"/>
      </g>
      <g id="Group_17" data-name="Group 17" transform="translate(33.029 79.733)">
        <rect id="Rectangle_17" data-name="Rectangle 17" width="0.213" height="22.943" transform="translate(0 0.205) rotate(-73.473)" fill="#80aaa8"/>
      </g>
      <g id="Group_18" data-name="Group 18" transform="translate(35.678 73.724)">
        <rect id="Rectangle_18" data-name="Rectangle 18" width="0.213" height="22.945" transform="translate(0 0.205) rotate(-73.459)" fill="#80aaa8"/>
      </g>
      <g id="Group_19" data-name="Group 19" transform="translate(31.248 84.871)">
        <rect id="Rectangle_19" data-name="Rectangle 19" width="0.213" height="22.943" transform="translate(0 0.205) rotate(-73.473)" fill="#80aaa8"/>
      </g>
      <g id="Group_20" data-name="Group 20" transform="translate(41.613 59.83)">
        <rect id="Rectangle_20" data-name="Rectangle 20" width="0.213" height="10.524" transform="translate(0 0.205) rotate(-73.699)" fill="#80aaa8"/>
      </g>
      <g id="Group_21" data-name="Group 21" transform="translate(42.246 57.24)">
        <rect id="Rectangle_21" data-name="Rectangle 21" width="0.213" height="10.524" transform="translate(0 0.205) rotate(-73.698)" fill="#80aaa8"/>
      </g>
      <path id="Path_66" data-name="Path 66" d="M973.787,999.734l6.142,2.166a24.385,24.385,0,0,0,1.641-1.968,3.974,3.974,0,0,0,.707-1.289l-6.036-2.083A10.652,10.652,0,0,1,973.787,999.734Z" transform="translate(-949.911 -908.905)" fill="#f73c60"/>
      <g id="Group_22" data-name="Group 22" transform="translate(128.878 34.394)">
        <rect id="Rectangle_22" data-name="Rectangle 22" width="18.358" height="0.213" transform="matrix(0.96, -0.281, 0.281, 0.96, 0, 5.162)" fill="#9dc6c5"/>
      </g>
      <g id="Group_23" data-name="Group 23" transform="translate(130.361 38.02)">
        <rect id="Rectangle_23" data-name="Rectangle 23" width="18.381" height="0.213" transform="matrix(0.959, -0.285, 0.285, 0.959, 0, 5.239)" fill="#9dc6c5"/>
      </g>
      <g id="Group_24" data-name="Group 24" transform="translate(134.316 46.206)">
        <rect id="Rectangle_24" data-name="Rectangle 24" width="18.38" height="0.213" transform="matrix(0.959, -0.285, 0.285, 0.959, 0, 5.239)" fill="#9dc6c5"/>
      </g>
      <g id="Group_25" data-name="Group 25" transform="translate(132.193 41.394)">
        <rect id="Rectangle_25" data-name="Rectangle 25" width="18.381" height="0.213" transform="matrix(0.959, -0.285, 0.285, 0.959, 0, 5.239)" fill="#9dc6c5"/>
      </g>
      <g id="Group_26" data-name="Group 26" transform="translate(135.742 50.321)">
        <rect id="Rectangle_26" data-name="Rectangle 26" width="18.38" height="0.213" transform="matrix(0.959, -0.285, 0.285, 0.959, 0, 5.239)" fill="#9dc6c5"/>
      </g>
      <g id="Group_27" data-name="Group 27" transform="translate(136.968 30.264)">
        <rect id="Rectangle_27" data-name="Rectangle 27" width="8.431" height="0.213" transform="matrix(0.96, -0.281, 0.281, 0.96, 0, 2.37)" fill="#9dc6c5"/>
      </g>
      <g id="Group_28" data-name="Group 28" transform="translate(136.46 28.189)">
        <rect id="Rectangle_28" data-name="Rectangle 28" width="8.431" height="0.213" transform="matrix(0.96, -0.281, 0.281, 0.96, 0, 2.37)" fill="#9dc6c5"/>
      </g>
      <path id="Path_67" data-name="Path 67" d="M1559.367,935.267a1.385,1.385,0,0,1-.5,1.717,1.329,1.329,0,0,1-1.7.233S1559.1,936.374,1559.367,935.267Z" transform="translate(-1447.842 -856.59)" fill="#bf8a1f"/>
      <path id="Path_68" data-name="Path 68" d="M1858.833,759.625l-4.92,1.735a19.528,19.528,0,0,1-1.315-1.577,3.183,3.183,0,0,1-.566-1.033l4.836-1.668A8.517,8.517,0,0,0,1858.833,759.625Z" transform="translate(-1699.512 -704.506)" fill="#ffbe2c"/>
      <path id="Path_69" data-name="Path 69" d="M1726.013,908.106l-17.16,11.524s-4.542-1.566-9.552-7.547c-.267-.318-.529-.649-.787-.988a59.848,59.848,0,0,1-6.84-12.49c-.6-1.43-.922-2.336-.922-2.336l17.8-9.4a29.8,29.8,0,0,0,5.635,10.93c.177.222.359.444.546.663a52.091,52.091,0,0,0,8.6,7.777C1724.923,907.41,1726.013,908.106,1726.013,908.106Z" transform="translate(-1561.855 -815.278)" fill="#fff"/>
      <g id="Group_29" data-name="Group 29" transform="translate(136.072 80.641)">
        <rect id="Rectangle_29" data-name="Rectangle 29" width="13.157" height="0.16" transform="matrix(0.86, -0.511, 0.511, 0.86, 0, 6.719)" fill="#80aaa8"/>
      </g>
      <g id="Group_30" data-name="Group 30" transform="translate(137.77 82.882)">
        <rect id="Rectangle_30" data-name="Rectangle 30" width="13.173" height="0.16" transform="translate(0 6.793) rotate(-31.041)" fill="#80aaa8"/>
      </g>
      <g id="Group_31" data-name="Group 31" transform="translate(141.979 87.855)">
        <rect id="Rectangle_31" data-name="Rectangle 31" width="13.172" height="0.16" transform="translate(0 6.792) rotate(-31.041)" fill="#80aaa8"/>
      </g>
      <g id="Group_32" data-name="Group 32" transform="translate(139.645 84.895)">
        <rect id="Rectangle_32" data-name="Rectangle 32" width="13.173" height="0.16" transform="translate(0 6.793) rotate(-31.041)" fill="#80aaa8"/>
      </g>
      <g id="Group_33" data-name="Group 33" transform="translate(143.706 90.456)">
        <rect id="Rectangle_33" data-name="Rectangle 33" width="13.172" height="0.16" transform="translate(0 6.792) rotate(-31.041)" fill="#80aaa8"/>
      </g>
      <g id="Group_34" data-name="Group 34" transform="translate(140.451 78.028)">
        <rect id="Rectangle_34" data-name="Rectangle 34" width="6.042" height="0.16" transform="matrix(0.86, -0.511, 0.511, 0.86, 0, 3.085)" fill="#80aaa8"/>
      </g>
      <g id="Group_35" data-name="Group 35" transform="translate(139.728 76.679)">
        <rect id="Rectangle_35" data-name="Rectangle 35" width="6.042" height="0.16" transform="matrix(0.86, -0.511, 0.511, 0.86, 0, 3.085)" fill="#80aaa8"/>
      </g>
      <path id="Path_70" data-name="Path 70" d="M1874.622,1022.937l-3.1,2.085a13.947,13.947,0,0,1-1.195-.859,2.279,2.279,0,0,1-.578-.615l3.057-2.023A6.112,6.112,0,0,0,1874.622,1022.937Z" transform="translate(-1714.631 -930.212)" fill="#6969f9"/>
      <rect id="Rectangle_36" data-name="Rectangle 36" width="9.562" height="5.547" transform="translate(66.927 13.272)" fill="#f73c60"/>
      <path id="Path_71" data-name="Path 71" d="M1577.516,868.095c-.39.254-.3,1.278-1.656,1.165l-.041,0c.892-.109.866-.911,1.2-1.129.436-.284.463-.616.318-1.133s-.642-.6-.627-.86.672-.369.35-.766c-.439-.544-1.064-.361-1.451-.566-.23-.124-1.15-1.927-1.9-1.952.8-.9,2.07,1.671,2.351,1.82.4.213,1.042.025,1.494.585.329.407-.348.521-.363.787s.5.367.649.885S1577.964,867.8,1577.516,868.095Z" transform="translate(-1461.962 -794.619)" fill="#cad4e0"/>
      <path id="Path_72" data-name="Path 72" d="M1573.428,869.23c-.335.218-.31,1.02-1.2,1.129-.969-.1-.162-.973-.419-1.231-.117-.119-.262-.023-.392.109-.158.162-.3.38-.35.333s-.1-.094-.077-.3a4.174,4.174,0,0,1,.088-.421c.147-.591-.146-.591-1.086-1.37s-.23-2.742-.23-2.742a1.937,1.937,0,0,1,.361-.787c.747.026,1.667,1.828,1.9,1.952.386.2,1.011.021,1.451.565.322.4-.337.506-.35.766s.487.356.627.86S1573.863,868.947,1573.428,869.23Z" transform="translate(-1458.368 -795.722)" fill="#132951"/>
      <path id="Path_73" data-name="Path 73" d="M1532.574,863.316a1.731,1.731,0,0,1-1.188,2.116c-1.1.339-2.836.2-4.406-2.829-2.539-4.9-.394-11.468.875-11.293s-.569,5.822.876,7.66C1529.854,860.4,1532.087,861.669,1532.574,863.316Z" transform="translate(-1421.063 -784.928)" fill="#ffbe2c"/>
      <path id="Path_74" data-name="Path 74" d="M1572.988,991.3a20.93,20.93,0,0,1,2.592-.33,3.9,3.9,0,0,1,1.726.33Z" transform="translate(-1461.342 -904.13)" fill="#bf8a1f"/>
      <path id="Path_75" data-name="Path 75" d="M1584.377,998.768a10.717,10.717,0,0,0,1.97-.766,2.7,2.7,0,0,0,.854-.7Z" transform="translate(-1471.063 -909.538)" fill="#bf8a1f"/>
      <path id="Path_76" data-name="Path 76" d="M1537.523,902.17a1.051,1.051,0,0,1,1.056-.333Z" transform="translate(-1431.071 -828.04)" fill="#bf8a1f"/>
      <path id="Path_77" data-name="Path 77" d="M1632.574,636.492a41.367,41.367,0,0,1-4.321-5.564c-5.547-8.521-8.031-21.592-8.031-21.592l3.106-.926c.6,4.517,2.238,14.581,5.767,21.98A46.506,46.506,0,0,0,1632.574,636.492Z" transform="translate(-1501.658 -577.61)" fill="#cce2e1"/>
      <path id="Path_78" data-name="Path 78" d="M1694.025,979.5a53.27,53.27,0,0,1-8.532-11.325l1.692-1.165A59.876,59.876,0,0,0,1694.025,979.5Z" transform="translate(-1557.368 -883.681)" fill="#cce2e1"/>
      <path id="Path_79" data-name="Path 79" d="M1296.476,1224.627a3.3,3.3,0,0,0-.513,1.467,1.122,1.122,0,0,0,1.274,1.275c1.018,0,5.126-1.678,5.034-2.192s-3.729-.951-3.729-.951l-1.608-.333Z" transform="translate(-1224.895 -1102.939)" fill="#6969f9"/>
      <path id="Path_80" data-name="Path 80" d="M1264.27,1216.589a3.3,3.3,0,0,0-.514,1.467,1.122,1.122,0,0,0,1.275,1.275c1.018,0,5.126-1.678,5.034-2.192s-3.729-.951-3.729-.951l-1.608-.333Z" transform="translate(-1197.406 -1096.078)" fill="#6969f9"/>
      <path id="Path_81" data-name="Path 81" d="M1274.629,1019.253a36.961,36.961,0,0,0,1.988,6.082,18.428,18.428,0,0,1,1.265,9.408,42.52,42.52,0,0,0-.275,8.638,30.931,30.931,0,0,0,.66,4.071,2.217,2.217,0,0,0,1.082.385,1.118,1.118,0,0,0,.889-.321s2.5-11.911,2.357-18.586a98.714,98.714,0,0,0-.633-10.182l-3.7-2.435Z" transform="translate(-1206.686 -925.764)" fill="#132951"/>
      <path id="Path_82" data-name="Path 82" d="M1249.018,1010.409a16.462,16.462,0,0,0,.991,6.888,18.429,18.429,0,0,1,1.266,9.408,42.5,42.5,0,0,0-.275,8.638,31.02,31.02,0,0,0,.66,4.071,2.222,2.222,0,0,0,1.082.385,1.118,1.118,0,0,0,.889-.321s2.5-11.911,2.356-18.587a98.611,98.611,0,0,0-.632-10.182l-3.7-2.435Z" transform="translate(-1184.795 -918.903)" fill="#132951"/>
      <path id="Path_83" data-name="Path 83" d="M1369.932,877.173a5.5,5.5,0,0,1,.607-1.716c.349-.4.844-1.009,1.046-.862s-.348.77-.22.88,1.192.294,1.064.954a3.52,3.52,0,0,1-.459,1.155l-1.32.11Z" transform="translate(-1288.029 -804.786)" fill="#f73c60"/>
      <path id="Path_84" data-name="Path 84" d="M1292.916,881.758a4.848,4.848,0,0,1,.617,1.646,8.7,8.7,0,0,1-.095,2.264,2.794,2.794,0,0,1-1.6-.554,4.984,4.984,0,0,1-1.013-1.14l-.111-.712.49-.966.475-.427Z" transform="translate(-1220.417 -810.919)" fill="#f73c60"/>
      <path id="Path_85" data-name="Path 85" d="M1291.082,903.264a1.792,1.792,0,0,0-.109.573c-.008.325,0,1.5,0,1.5l-1.947-.04-.04-1.591.3-.649.871-.371.847-.127Z" transform="translate(-1218.94 -828.675)" fill="#f73c60"/>
      <path id="Path_86" data-name="Path 86" d="M1231.75,930.22s-3.747,3.749-3.8,5.5a5.393,5.393,0,0,0,3.356,5.385c2.861,1.32,3.961-3.906,3.906-4.126S1231.75,930.22,1231.75,930.22Z" transform="translate(-1166.839 -852.282)" fill="#c9c9c9"/>
      <path id="Path_87" data-name="Path 87" d="M1263.835,893.739c.247.11.328.327-.023.555-.366.239-.38.048-.441.285,0,0,0,0,0,0-.851,3.562-2.755,10.452-4.687,10.289a3.909,3.909,0,0,1-3.338-2.6,12.718,12.718,0,0,1-.009,2.861,5.154,5.154,0,0,0,.633,3.631c.715,1.265.137,3.741.137,3.741a11.127,11.127,0,0,1-8.206,1.467c-4.329-1.137-4.659-2.677-4.659-2.677a11.722,11.722,0,0,1,.844-3.411,9.3,9.3,0,0,0,.1-4.054c-.015-.145-.029-.291-.045-.439a19.317,19.317,0,0,1-.124-3.554c.4-4.533,6.458-4.672,6.458-4.672a12.04,12.04,0,0,1,5.059,1.165,10.686,10.686,0,0,1,2.9,2.567,51.643,51.643,0,0,1,2.366-4.709q.155-.253.3-.469s0,0,0,0c.189-.3-.059-.51.174-.634s.042-.33.139-.7a.3.3,0,0,1,.144-.179h0a.915.915,0,0,1,.312-.11,1.635,1.635,0,0,1,.792.054l1.185.37a.779.779,0,0,1,.266.439.659.659,0,0,1,.009.2C1264.068,893.547,1263.587,893.629,1263.835,893.739Z" transform="translate(-1179.895 -819.712)" fill="#fff"/>
      <path id="Path_88" data-name="Path 88" d="M1279.553,850.015c-1.828-.4-2.7,2.65-2.269,3.635.286.655-1.077.238-1.536,1.52a2.059,2.059,0,0,0,.238,1.7,1.608,1.608,0,0,0,.411,1.592,1.491,1.491,0,0,1-1.035-1.9,2.06,2.06,0,0,1-.238-1.7c.46-1.283,1.822-.866,1.536-1.519-.444-1.014.491-4.211,2.422-3.594A1.245,1.245,0,0,1,1279.553,850.015Z" transform="translate(-1207.025 -783.528)" fill="#cad4e0"/>
      <path id="Path_89" data-name="Path 89" d="M1283.161,856.181s-.115.6-.566.692-.582.487-.475.689.436.281.5.574-.007.554-.231.34-.5-.285-.581-.059-.035.617.344.605.236,1.433-1.448,1.353a2.983,2.983,0,0,1-.674-.1,1.607,1.607,0,0,1-.412-1.592,2.059,2.059,0,0,1-.238-1.7c.459-1.282,1.822-.865,1.536-1.52-.431-.986.441-4.041,2.269-3.635C1284.374,852.917,1283.161,856.181,1283.161,856.181Z" transform="translate(-1210.661 -785.341)" fill="#132951"/>
      <path id="Path_90" data-name="Path 90" d="M1348.785,941.958a4.763,4.763,0,0,1,.7,1.412,5.754,5.754,0,0,1,.165,1.54Z" transform="translate(-1269.98 -862.301)" fill="#c9c9c9"/>
      <path id="Path_91" data-name="Path 91" d="M1366.326,900.892s-.027.241.3.413a3.188,3.188,0,0,0,1.093.165Z" transform="translate(-1284.95 -827.25)" fill="#c9c9c9"/>
      <path id="Path_92" data-name="Path 92" d="M1368.2,895.352s-.028.241.3.413a3.188,3.188,0,0,0,1.094.165Z" transform="translate(-1286.553 -822.521)" fill="#c9c9c9"/>
      <path id="Path_93" data-name="Path 93" d="M1304.9,983.913a4.823,4.823,0,0,1-1.027,1.355,3.757,3.757,0,0,1-2.034.7Z" transform="translate(-1229.914 -898.11)" fill="#c9c9c9"/>
      <path id="Path_94" data-name="Path 94" d="M1269.409,1047.469a4.044,4.044,0,0,0,.508,2.027,6.6,6.6,0,0,0,1.306,1.974Z" transform="translate(-1202.225 -952.357)" fill="#0b1a30"/>
      <path id="Path_95" data-name="Path 95" d="M1574.753,1059.486a6.835,6.835,0,0,1-.952,2.24,4.776,4.776,0,0,1-1.274,1.35Z" transform="translate(-1460.949 -962.613)" fill="#5252d8"/>
    </g>
  </g>
</svg>
