<svg xmlns="http://www.w3.org/2000/svg" width="34.18" height="37.185" viewBox="0 0 34.18 37.185">
  <g id="Group_90144" data-name="Group 90144" transform="translate(-139.366 -7.732)">
    <g id="Group_90129" data-name="Group 90129" transform="translate(139.366 7.732)">
      <g id="Group_90080" data-name="Group 90080" transform="translate(0 0)">
        <path id="Subtraction_80" data-name="Subtraction 80" d="M17.09,37.185a2.39,2.39,0,0,1-1.155-.3L1.155,28.7a2.272,2.272,0,0,1-.845-.812A2.152,2.152,0,0,1,0,26.781V10.405A2.153,2.153,0,0,1,.309,9.3a2.27,2.27,0,0,1,.845-.812L15.935.3a2.394,2.394,0,0,1,2.311,0L33.024,8.485a2.27,2.27,0,0,1,.846.812,2.152,2.152,0,0,1,.309,1.109V26.781a2.15,2.15,0,0,1-.309,1.108,2.271,2.271,0,0,1-.846.812L18.245,36.889A2.39,2.39,0,0,1,17.09,37.185Zm0-15.1h0c3.767,2.943,6.3,4.922,7.983,6.227V23.346L9.111,10.909v4.967L13.9,19.6l-4.79,3.744v4.967l7.982-6.227Zm7.983-11.176h0l-6.267,4.868L22,18.261l3.074-2.385V10.909ZM17.094,8.873a2.037,2.037,0,1,0,1.44.6A2.023,2.023,0,0,0,17.094,8.873Z" fill="#fff"/>
      </g>
    </g>
  </g>
</svg>
