<?xml version="1.0" encoding="utf-8"?>
<!-- Generator: Adobe Illustrator 26.2.1, SVG Export Plug-In . SVG Version: 6.00 Build 0)  -->
<svg version="1.1" id="Layer_1" xmlns="http://www.w3.org/2000/svg" xmlns:xlink="http://www.w3.org/1999/xlink" x="0px" y="0px"
	 viewBox="0 0 174.6 44.5" style="enable-background:new 0 0 174.6 44.5;" xml:space="preserve">
<style type="text/css">
	.st0{fill:#E69F3E;}
	.st1{enable-background:new    ;}
</style>
<g id="Group_90147" transform="translate(-75 -7.732)">
	<g id="Group_90129" transform="translate(139.366 7.732)">
		<path id="Subtraction_80" class="st0" d="M20.5,44.5c-0.5,0-1-0.1-1.4-0.4L1.4,34.4c-0.4-0.2-0.8-0.6-1-1C0.1,33,0,32.5,0,32.1
				V12.5c0-0.5,0.1-0.9,0.4-1.3c0.2-0.4,0.6-0.7,1-1l17.7-9.8c0.9-0.5,1.9-0.5,2.8,0l17.7,9.8c0.4,0.2,0.8,0.6,1,1
				c0.2,0.4,0.4,0.9,0.4,1.3v19.6c0,0.5-0.1,0.9-0.4,1.3c-0.2,0.4-0.6,0.7-1,1l-17.7,9.8C21.4,44.4,21,44.5,20.5,44.5z M20.5,26.5
				L20.5,26.5C25,30,28,32.3,30,33.9V28L10.9,13.1V19l5.7,4.5L10.9,28v5.9L20.5,26.5L20.5,26.5z M30,13.1L30,13.1l-7.5,5.8l3.8,3
				L30,19L30,13.1L30,13.1z M20.5,10.6c-1.3,0-2.4,1.1-2.4,2.4c0,1.3,1.1,2.4,2.4,2.4c1.3,0,2.4-1.1,2.4-2.4c0-0.6-0.3-1.3-0.7-1.7
				C21.7,10.9,21.1,10.6,20.5,10.6L20.5,10.6z"/>
	</g>
</g>
</svg>
