<svg xmlns="http://www.w3.org/2000/svg" width="40.133" height="43.468" viewBox="0 0 40.133 43.468">
  <g id="Group_90286" data-name="Group 90286" transform="translate(-911.22 -67.537)">
    <path id="Subtraction_82" data-name="Subtraction 82" d="M20.064,43.468a2.8,2.8,0,0,1-1.356-.347L1.354,33.55A2.678,2.678,0,0,1,.363,32.6,2.507,2.507,0,0,1,0,31.305V12.164a2.487,2.487,0,0,1,.363-1.295,2.659,2.659,0,0,1,.992-.951L18.708.347a2.821,2.821,0,0,1,2.712,0L38.775,9.918a2.653,2.653,0,0,1,.993.951,2.506,2.506,0,0,1,.365,1.295V31.305a2.508,2.508,0,0,1-.365,1.3,2.674,2.674,0,0,1-.993.948L21.421,43.121A2.8,2.8,0,0,1,20.064,43.468ZM9.5,19.1V31.771H25.332a6.534,6.534,0,0,0,4.712-1.85,6.253,6.253,0,0,0,1.946-4.653V17.735a6.254,6.254,0,0,0-1.946-4.614,6.546,6.546,0,0,0-4.712-1.888H9.5v4.789h15.6a1.494,1.494,0,0,0-.166.689,1.53,1.53,0,0,0,2.22,1.367v7.192c0,1.137-.616,1.714-1.831,1.714h-8.9a1.482,1.482,0,0,0,.087-.508,1.529,1.529,0,0,0-2.222-1.363V19.1Zm11.228-1.04A3.443,3.443,0,0,0,18.279,23.9,3.311,3.311,0,0,0,20.7,24.946h.047a3.444,3.444,0,0,0,.033-6.888Zm-.005,5.623a2.179,2.179,0,1,1,2.18-2.178A2.181,2.181,0,0,1,20.727,23.681Zm0-3.709A1.53,1.53,0,1,0,22.258,21.5,1.53,1.53,0,0,0,20.727,19.972Z" transform="translate(911.22 67.537)" fill="#e69f3e"/>
  </g>
</svg>